<svg width="671" height="671" xmlns="http://www.w3.org/2000/svg" xmlns:xlink="http://www.w3.org/1999/xlink" overflow="hidden"><defs><clipPath id="clip0"><rect x="1237" y="581" width="671" height="671"/></clipPath></defs><g clip-path="url(#clip0)" transform="translate(-1237 -581)"><path d="M1247.5 916.5C1247.5 737.008 1393.01 591.5 1572.5 591.5 1751.99 591.5 1897.5 737.008 1897.5 916.5 1897.5 1095.99 1751.99 1241.5 1572.5 1241.5 1393.01 1241.5 1247.5 1095.99 1247.5 916.5Z" stroke="#000000" stroke-width="20.625" stroke-miterlimit="8" fill="#6EACDA" fill-rule="evenodd"/><path d="M1711 743.667 1711 1154.33 1701.33 1164 1653 1164 1653 734 1701.33 734C1706.67 734 1711 738.328 1711 743.667Z" fill="#E7F0DC" fill-rule="evenodd"/><path d="M1745.34 1072.36 1361.64 923.859 1356.13 911.385 1373.53 866.422 1775.21 1021.89 1757.81 1066.85C1755.89 1071.82 1750.3 1074.29 1745.34 1072.36Z" fill="#E7F0DC" fill-rule="evenodd"/><path d="M1475 693.667 1475 1104.33 1465.33 1114 1417 1114 1417 684 1465.33 684C1470.67 684 1475 688.328 1475 693.667Z" fill="#E7F0DC" fill-rule="evenodd"/></g></svg>